<?xml version="1.0" encoding="UTF-8" standalone="no"?>
<svg
   xmlns:dc="http://purl.org/dc/elements/1.1/"
   xmlns:cc="http://creativecommons.org/ns#"
   xmlns:rdf="http://www.w3.org/1999/02/22-rdf-syntax-ns#"
   xmlns:svg="http://www.w3.org/2000/svg"
   xmlns="http://www.w3.org/2000/svg"
   xmlns:sodipodi="http://sodipodi.sourceforge.net/DTD/sodipodi-0.dtd"
   xmlns:inkscape="http://www.inkscape.org/namespaces/inkscape"
   id="svg2"
   sodipodi:docname="logo.svg"
   viewBox="0 0 999.99996 999.99998"
   version="1.1"
   inkscape:version="1.0.2-2 (e86c870879, 2021-01-15)"
   width="1000"
   height="1000">
  <defs
     id="defs11" />
  <sodipodi:namedview
     id="base"
     bordercolor="#666666"
     inkscape:pageshadow="2"
     inkscape:window-y="2155"
     pagecolor="#ffffff"
     inkscape:window-height="1570"
     inkscape:window-maximized="1"
     inkscape:zoom="0.505"
     inkscape:window-x="2596"
     showgrid="false"
     borderopacity="1.0"
     inkscape:current-layer="layer1"
     inkscape:cx="-106.52012"
     inkscape:cy="394.62688"
     inkscape:window-width="2496"
     inkscape:pageopacity="0.0"
     inkscape:document-units="px"
     inkscape:document-rotation="0"
     inkscape:snap-global="false" />
  <g
     id="layer1"
     inkscape:label="Vrstva 1"
     inkscape:groupmode="layer">
    <g
       id="g907">
      <g
         id="g850"
         transform="matrix(-2.53053,-0.03341354,-0.03341354,-2.53053,1038.0811,2209.6311)">
        <path
           id="path844"
           sodipodi:nodetypes="cccccccsccccccccccsscscsscscaaacsscccccccccccccccccccccc"
           style="color:#000000;opacity:1;fill:#19457c;fill-opacity:1;fill-rule:evenodd"
           inkscape:connector-curvature="0"
           d="m 205.22,478.53 c -23.15688,16.34454 -41.83323,53.12276 -43.6252,79.5 l 18.34,27.97 -18.6,-19.53 c -0.0333,8.4167 0.51776,17.394 1.125,27.094 l 12,14.844 -11.531,-6.375 c 0.34608,5.9871 0.66846,12.155 0.8125,18.688 0.53129,24.095 3.2621,61.668 7.8125,98.219 l 15.16,31.78 -14.03,-23.22 c 1.2784,9.6063 2.6675,19.06 4.1875,28.094 l 14.156,17 -13.5,-13.312 c 1.3937,8.0034 2.8954,15.596 4.4688,22.656 l 14,9.1562 -18.741,-5.1097 c 2.2337,8.2287 16.005,10.247 20.225,13.24 0,0 -18.352,-1.4767 -16.481,0.0653 5.136,4.2312 12.223,5.0179 14.951,6.2104 5.2176,2.2806 3.3255,2.0318 3.3255,2.0318 -1.7183,-0.31873 -8.3403,4.3107 -12.856,4.275 -3.2433,-0.0256 2.6433,0.16019 6.3662,-0.25953 14.31,-4.1628 7.819,-1.0595 8.9684,-1.9324 1.8048,-1.3706 -10.876,5.7242 -13.106,5.8769 -3.1577,0.21605 3.0489,1.4336 5.3547,0.35605 6.3347,-3.0329 12.819,-5.5291 19.655,-1.5848 4.907,2.8316 9.6512,-0.21607 7.8019,-1.3297 -1.7484,-1.8359 0.41271,0.30444 0.2971,0.43753 -1.4859,1.7106 -6.0522,-0.7293 -6.1023,-2.9946 -0.0714,-3.2319 9.9407,-1.7546 8.5089,-4.6529 -0.29476,-0.59665 4.1858,1.4365 -1.8251,0.80916 -2.1331,-0.31119 -2.9558,-0.90497 -4.4048,1.2467 0,0 1.8069,-3.3305 0.92239,-3.0232 -11.553,4.0142 6.8807,-4.0658 9.8015,-11.357 l -13.494,2.5441 10.051,-11.724 c 0.76355,-2.9062 1.512,-5.9353 2.25,-9.0312 l -13.54,7.78 14.06,-10.06 c 0.92178,-3.9543 1.8354,-8.0372 2.7188,-12.25 l -18.188,12.875 18.906,-16.406 c 1.3869,-6.8048 2.7087,-13.9 3.9688,-21.125 l -19.875,22 20.96,-28.38 c 7.2214,-43.29 11.924,-90.896 11.906,-120.09 l -13,8.4375 c 12.83559,-7.69668 13.00208,-13.67041 12.59405,-26.343 l -13.281,12.094 13.188,-15.031 c -0.5639,-15.697 -1.5394,-30.203 -3.5,-42.625 l -18.11,15.38 14.19,-32.69 c -6.41339,-14.04841 -22.03415,-48.83827 -35.28095,-50.219 z" />
        <path
           id="path846"
           style="fill:#f0e2e2;fill-rule:evenodd;stroke:#000000;stroke-width:0.30448;stroke-linecap:round"
           inkscape:connector-curvature="0"
           d="m 205.03,478.51 c 0.98759,-6.7e-4 1.7961,80.659 1.8047,180.04 0.009,99.385 -0.7859,180.05 -1.7735,180.05 -0.98759,6.7e-4 -1.7961,-80.659 -1.8047,-180.04 -0.009,-99.385 0.78591,-180.05 1.7735,-180.05 z" />
        <path
           id="path848"
           sodipodi:nodetypes="cccc"
           style="fill:#000000;fill-rule:evenodd"
           inkscape:connector-curvature="0"
           d="m 202.28,842.66 c 2.174,-4.381 4.3103,-2.3783 5.4014,0.47766 l -2.514,-28.929 z" />
      </g>
      <g
         id="g842"
         transform="matrix(-2.7355499,-0.95049478,-1.0223921,2.7094995,1991.4013,-1095.9208)">
        <path
           id="path836"
           sodipodi:nodetypes="cccccccccccccccccscccccscacssccccccccccccccccccccccc"
           style="color:#000000;opacity:1;fill:#1f5598;fill-rule:evenodd"
           inkscape:connector-curvature="0"
           d="m 205.22,478.53 c -23.15688,16.34454 -41.83323,53.12276 -43.6252,79.5 l 18.34,27.97 -18.6,-19.53 c -0.0333,8.4167 0.51776,17.394 1.125,27.094 l 12,14.844 -11.531,-6.375 c 1.61117,39.57325 4.38737,82.31761 8.625,116.907 l 15.16,31.78 -14.03,-23.22 c 1.2784,9.6063 2.6675,19.06 4.1875,28.094 l 14.156,17 -13.5,-13.312 c 1.3937,8.0034 2.8954,15.596 4.4688,22.656 l 14,9.1562 -18.741,-5.1097 c 2.2337,8.2287 16.005,10.247 20.225,13.24 0,0 -18.352,-1.4767 -16.481,0.0653 5.136,4.2312 12.223,5.0179 14.951,6.2104 0.58151,3.17031 -8.46009,4.5849 -9.5305,6.3068 -3.2433,-0.0256 2.6433,0.16019 6.3662,-0.25953 0,0 4.65117,2.59746 -4.1376,3.9445 -3.1577,0.21605 3.0489,1.4336 5.3547,0.35605 6.3347,-3.0329 12.819,-5.5291 19.655,-1.5848 4.907,2.8316 9.6512,-0.21607 7.8019,-1.3297 -1.7484,-1.8359 0.41271,0.30444 0.2971,0.43753 -1.4859,1.7106 -6.0522,-0.7293 -6.1023,-2.9946 0,0 1.71899,-1.59312 2.279,-2.59704 0.51529,-0.92375 1.8069,-3.3305 0.92239,-3.0232 -11.553,4.0142 6.8807,-4.0658 9.8015,-11.357 l -13.494,2.5441 10.051,-11.724 c 0.76355,-2.9062 1.512,-5.9353 2.25,-9.0312 l -13.54,7.78 14.06,-10.06 c 0.92178,-3.9543 1.8354,-8.0372 2.7188,-12.25 l -18.188,12.875 18.906,-16.406 c 1.3869,-6.8048 2.7087,-13.9 3.9688,-21.125 l -19.875,22 20.96,-28.38 c 7.2214,-43.29 11.924,-90.896 11.906,-120.09 l -13,8.4375 12.969,-10.656 c -0.0506,-5.26738 -0.22316,-10.99106 -0.37495,-15.687 l -13.281,12.094 13.188,-15.031 c -0.5639,-15.697 -1.5394,-30.203 -3.5,-42.625 l -18.11,15.38 14.19,-32.69 c -6.41339,-14.04841 -22.03415,-48.83827 -35.28095,-50.219 z" />
        <path
           id="path838"
           style="fill:#f0e2e2;fill-rule:evenodd;stroke:#000000;stroke-width:0.30448;stroke-linecap:round"
           inkscape:connector-curvature="0"
           d="m 205.03,478.51 c 0.98759,-6.7e-4 1.7961,80.659 1.8047,180.04 0.009,99.385 -0.7859,180.05 -1.7735,180.05 -0.98759,6.7e-4 -1.7961,-80.659 -1.8047,-180.04 -0.009,-99.385 0.78591,-180.05 1.7735,-180.05 z" />
        <path
           id="path840"
           sodipodi:nodetypes="cccc"
           style="fill:#000000;fill-rule:evenodd"
           inkscape:connector-curvature="0"
           d="m 202.28,842.66 c 2.174,-4.381 4.3103,-2.3783 5.4014,0.47766 l -2.514,-28.929 z" />
      </g>
      <g
         id="g858"
         transform="matrix(2.7355499,-0.95049478,1.0223921,2.7094995,-991.40128,-1095.9208)">
        <path
           id="path852"
           sodipodi:nodetypes="ssccccccccccccccccsscscssccssccccccccccccccccccccccs"
           style="color:#000000;opacity:1;fill:#1f5598;fill-opacity:0.993151;fill-rule:evenodd"
           inkscape:connector-curvature="0"
           d="m 205.22,478.53 c -9.3228,0.20557 -32.409,40.138 -38.719,55.875 -2.9559,7.373 -4.3693,15.194 -4.9062,23.625 l 18.34,27.97 -18.6,-19.53 c -0.0333,8.4167 0.51776,17.394 1.125,27.094 l 12,14.844 -11.531,-6.375 c 1.61117,39.57325 4.38737,82.31761 8.625,116.907 l 15.16,31.78 -14.03,-23.22 c 1.2784,9.6063 2.6675,19.06 4.1875,28.094 l 14.156,17 -13.5,-13.312 c 1.3937,8.0034 2.8954,15.596 4.4688,22.656 l 14,9.1562 -18.741,-5.1097 c 2.2337,8.2287 16.005,10.247 20.225,13.24 0,0 -18.352,-1.4767 -16.481,0.0653 5.136,4.2312 12.223,5.0179 14.951,6.2104 5.2176,2.2806 3.3255,2.0318 3.3255,2.0318 -1.7183,-0.31873 -8.3403,4.3107 -12.856,4.275 -3.2433,-0.0256 2.6433,0.16019 6.3662,-0.25953 14.31,-4.1628 7.819,-1.0595 8.9684,-1.9324 1.8048,-1.3706 -10.876,5.7242 -13.106,5.8769 -3.1577,0.21605 3.0489,1.4336 5.3547,0.35605 6.3347,-3.0329 12.819,-5.5291 19.655,-1.5848 0.96206,-2.55384 0.78043,-5.49588 4.2757,-6.48381 2.47806,-0.70042 4.60156,-3.1899 3.71705,-2.8826 -11.553,4.0142 4.08604,-4.2064 7.00684,-11.4976 l -13.494,2.5441 10.051,-11.724 c 0.76355,-2.9062 1.512,-5.9353 2.25,-9.0312 l -13.54,7.78 14.06,-10.06 c 0.92178,-3.9543 1.8354,-8.0372 2.7188,-12.25 l -18.188,12.875 18.906,-16.406 c 1.3869,-6.8048 2.7087,-13.9 3.9688,-21.125 l -19.875,22 20.96,-28.38 c 7.2214,-43.29 11.924,-90.896 11.906,-120.09 l -13,8.4375 12.969,-10.656 c -0.0506,-5.26738 -0.22316,-10.99106 -0.37495,-15.687 l -13.281,12.094 13.188,-15.031 c -0.5639,-15.697 -1.5394,-30.203 -3.5,-42.625 l -18.11,15.38 14.19,-32.69 c -6.41339,-14.04841 -22.03415,-48.83827 -35.28095,-50.219 z" />
        <path
           id="path854"
           style="fill:#f0e2e2;fill-rule:evenodd;stroke:#000000;stroke-width:0.30448;stroke-linecap:round"
           inkscape:connector-curvature="0"
           d="m 205.03,478.51 c 0.98759,-6.7e-4 1.7961,80.659 1.8047,180.04 0.009,99.385 -0.7859,180.05 -1.7735,180.05 -0.98759,6.7e-4 -1.7961,-80.659 -1.8047,-180.04 -0.009,-99.385 0.78591,-180.05 1.7735,-180.05 z" />
        <path
           id="path856"
           sodipodi:nodetypes="cccc"
           style="fill:#000000;fill-rule:evenodd"
           inkscape:connector-curvature="0"
           d="m 202.28,842.66 c 2.174,-4.381 4.3103,-2.3783 5.4014,0.47766 l -2.514,-28.929 z" />
      </g>
    </g>
  </g>
  <metadata
     id="metadata8">
    <rdf:RDF>
      <cc:Work>
        <dc:format>image/svg+xml</dc:format>
        <dc:type
           rdf:resource="http://purl.org/dc/dcmitype/StillImage" />
        <cc:license
           rdf:resource="http://creativecommons.org/publicdomain/zero/1.0/" />
        <dc:publisher>
          <cc:Agent
             rdf:about="http://openclipart.org/">
            <dc:title>Openclipart</dc:title>
          </cc:Agent>
        </dc:publisher>
        <dc:title></dc:title>
        <dc:date>2012-09-02T06:27:26</dc:date>
        <dc:description>a blue feather</dc:description>
        <dc:source>https://openclipart.org/detail/172047/feather-by-t-i-n-a-172047</dc:source>
        <dc:creator>
          <cc:Agent>
            <dc:title>T-i-n-a</dc:title>
          </cc:Agent>
        </dc:creator>
        <dc:subject>
          <rdf:Bag>
            <rdf:li>bird</rdf:li>
            <rdf:li>blue</rdf:li>
            <rdf:li>feather</rdf:li>
          </rdf:Bag>
        </dc:subject>
      </cc:Work>
      <cc:License
         rdf:about="http://creativecommons.org/publicdomain/zero/1.0/">
        <cc:permits
           rdf:resource="http://creativecommons.org/ns#Reproduction" />
        <cc:permits
           rdf:resource="http://creativecommons.org/ns#Distribution" />
        <cc:permits
           rdf:resource="http://creativecommons.org/ns#DerivativeWorks" />
      </cc:License>
    </rdf:RDF>
  </metadata>
</svg>
