<svg width="625" height="625" version="1.1" viewBox="0 0 165.36 165.36" xml:space="preserve" xmlns="http://www.w3.org/2000/svg"><g transform="matrix(1.0219 0 0 1.0219 -3.9227 -6.0475)" stroke-width=".97859"><path d="m124.73 130.43-60.428-34.477s2.3012-22.368 18.215-24.346c15.914-1.9784 29.761 29.113 36.963 45.919 7.202 16.806 5.2496 12.904 5.2496 12.904z" fill="#080278"/><path d="m7.6744 37.227c-1.3857 9.4881 3.6569 23.862 10.106 31.75l11.779 4.1404-9.639-1.6819c2.1892 2.4045 4.6674 4.8468 7.348 7.4832l6.8046 1.7243-4.4791 0.59025c10.725 10.937 22.562 22.533 32.626 31.502l11.997 5.8893-9.4868-3.6867c2.82 2.4696 5.6271 4.8727 8.3566 7.1289l7.8937 1.8886-6.7708-0.97494c2.4296 1.989 4.7784 3.8384 7.0056 5.5212l5.8079-0.3132-5.9088 2.4552c2.6935 1.8779 6.5821-0.42087 8.3936-0.44891 0 0-4.8654 3.4089-4.0061 3.4578 2.3584 0.13351 4.2937-1.1212 5.271-1.3508 0.96962 0.78175-0.86819 3.0714-0.67995 3.7853-0.79838 0.66951 0.68708-0.50593 1.4863-1.4024 0 0 1.8135-0.23066 0.01981 1.987-0.71446 0.72042 1.1185-0.22785 1.4001-1.016 0.75455-2.1858 1.6857-4.25 4.3842-4.5529 1.9371-0.21736 2.2995-2.0755 1.5573-2.0068-0.90609-0.15806 0.19136-3e-3 0.18675 0.0626-0.05401 0.7681-1.6678 1.0552-2.2714 0.42036 0 0 0.0037-0.81251-0.1217-1.2154-0.11541-0.37064-0.42841-1.3258-0.5641-1.0536-1.7722 3.5543 0.61817-2.594-0.57236-5.2804l-2.6298 3.5405-0.6073-5.437c-0.57233-0.98718-1.1804-2.0062-1.8085-3.0421l-1.2741 5.0416 0.80578-5.7996c-0.80732-1.3188-1.6502-2.6725-2.5344-4.0568l-1.0786 7.4629 0.33199-8.6185c-1.438-2.2278-2.9676-4.5248-4.5463-6.8458l0.89188 10.414-2.2927-12.458c-9.5388-13.838-20.819-28.381-28.445-36.693l-0.97062 5.1162 0.38387-5.7417c-1.3875-1.4898-2.9239-3.0843-4.1869-4.3903l-0.08461 6.2164-0.70484-7.0337c-4.2356-4.3537-8.2608-8.2823-11.982-11.412l-0.40554 8.1602-5.0705-12.273c-5.2331-2.6635-18.129-9.314-21.723-6.943z" color="#000000" fill="#3d9519" fill-rule="evenodd" stroke-width=".7497"/><path d="m165.02 136.83h-152.44s-18.212-33.384 0-47.345c18.212-13.961 60.029 8.5365 84.685 22.772 24.656 14.235 67.751 24.574 67.751 24.574z" fill="#f8b503"/></g></svg>
